<svg width="729" height="880" viewBox="0 0 729 880" fill="none" xmlns="http://www.w3.org/2000/svg">
<g clip-path="url(#clip0_1_151)">
<g opacity="0.2">
<ellipse cx="428.5" cy="396.5" rx="242.5" ry="257.5" fill="#906ED3"/>
<path d="M26.0339 242.903C17.3848 250.305 10.7127 258.27 7.19609 267.291C-16.197 319.627 41.0003 423.228 118.525 509.433C151.551 442.091 196.451 378.113 241.058 339.185C231.501 289.498 227.567 235 228.953 184.966C143.643 190.343 63.6605 210.7 26.0339 242.903Z" fill="#C7C7F3"/>
<path d="M118.524 509.436C72.1024 604.025 47.9393 703.611 78.3245 745.243C113.102 792.881 239.158 793.966 356.414 767.259C308.222 720.579 264.722 665.373 239.09 614.415C198.579 588.966 155.771 551.205 118.524 509.436Z" fill="#C6B1E6"/>
<path d="M240.684 338.753C196.076 377.681 151.55 442.091 118.152 509.002C155.77 551.205 198.206 588.532 238.718 613.982C218.66 574.786 209.298 538.458 216.264 510.703C222.675 484.926 241.575 459.734 267.957 437.155C268.39 436.785 268.821 436.415 269.254 436.045C257.24 407.999 247.634 374.888 240.684 338.753Z" fill="#AA95E1"/>
<path d="M277.855 15.3582C246.715 42.0094 230.751 108.277 228.148 184.903C252.937 183.227 278.037 182.787 303.014 183.956C303.507 182.782 304.001 181.608 304.494 180.434C310.669 168.386 320.428 157.028 332.97 146.294C371.029 113.721 434.129 86.7704 502.555 69.5427C418.067 16.35 328.651 -14.588 286.011 9.12944C283.849 10.9802 280.882 12.7677 277.855 15.3582Z" fill="#C7C7F3"/>
<path d="M228.581 184.532C227.195 234.566 231.561 288.695 240.684 338.751C241.117 338.381 241.55 338.011 241.981 337.641C264.904 318.023 288.139 304.901 309.775 302.166C292.927 257.967 288.075 215.527 303.013 183.956C278.84 182.85 253.37 182.855 228.581 184.532Z" fill="#ABABEE"/>
<path d="M241.982 337.643C241.549 338.013 241.118 338.382 240.685 338.753C247.264 374.455 256.809 408.37 269.194 436.849C292.548 416.862 322.209 398.99 354.47 384.156C336.275 357.644 321.047 329.345 310.208 301.797C288.511 305.336 265.336 317.655 241.982 337.643Z" fill="#9D92E5"/>
<path d="M356.414 767.257C430.529 839.848 516.314 891.93 564.4 876.326C571.878 873.683 579.479 869.433 586.832 863.14C626.62 829.087 655.8 743.242 668.469 651.236C635.337 656.297 601.584 658.882 568.818 659.119C562.456 668.321 554.489 677.395 544.541 685.908C502.219 721.378 430.897 750.103 356.414 767.257Z" fill="#C6B1E6"/>
<path d="M238.659 614.784C264.723 665.372 308.223 720.577 355.982 767.627C431.27 750.537 502.592 721.812 543.677 686.649C553.625 678.136 561.594 669.06 567.954 659.86C497.972 660.385 434.535 649.297 399.711 623.49C379.507 639.279 357.752 648.879 335.869 649.573C307.925 650.191 274.161 637.004 238.659 614.784Z" fill="#A98ADA"/>
<path d="M267.896 437.958C241.515 460.536 222.615 485.729 216.203 511.506C209.237 539.262 218.598 575.589 238.657 614.785C273.726 637.375 307.49 650.562 335.496 649.14C357.379 648.446 379.134 638.846 399.338 623.057C393.586 618.962 388.328 613.694 384.244 608.922C367.599 588.598 358.923 559.2 356.611 525.858C343.502 522.798 332.124 518.258 321.733 511.369C301.383 497.223 283.993 470.774 269.564 437.282C268.761 437.218 268.328 437.588 267.896 437.958Z" fill="#9B7BD7"/>
<path d="M269.195 436.847C283.623 470.34 301.014 496.788 321.364 510.935C331.754 517.823 343.504 522.797 356.241 525.423C353.804 488.432 357.853 445.887 368.705 404.286C363.568 397.41 358.803 390.966 353.667 384.09C322.211 398.988 292.549 416.859 269.195 436.847Z" fill="#957AD9"/>
<path d="M758.434 324.747C732.689 376.087 700.579 426.114 666.542 464.263C676.968 518.466 676.584 587.181 667.976 652.414C747.717 640.529 821.948 616.077 860.007 583.505C871.684 573.511 880.207 562.458 883.909 551.025C901.304 497.81 839.414 402.732 758.434 324.747Z" fill="#C6B1E6"/>
<path d="M567.305 530.405C584.835 576.275 589.193 619.889 572.154 652.507C570.734 655.226 569.376 657.14 567.956 659.859C600.721 659.623 634.473 657.038 667.606 651.978C676.647 586.375 676.97 518.464 666.173 463.827C655.98 475.555 645.107 485.612 634.727 494.496C612.177 514.547 589.002 526.866 567.305 530.405Z" fill="#A98ADA"/>
<path d="M485.19 509.751C464.139 552.566 437.337 591.287 407.063 617.198C404.467 619.419 401.873 621.639 399.278 623.86C434.535 649.297 498.342 660.818 567.522 660.229C569.312 657.945 570.732 655.227 571.719 652.878C588.759 620.259 584.4 576.646 566.871 530.775C565.635 531.083 564.028 530.955 562.791 531.262C538.868 532.198 511.969 524.406 485.19 509.751Z" fill="#9B76D4"/>
<path d="M356.614 525.856C359.297 559.633 367.973 589.031 384.246 608.921C388.701 614.125 393.589 618.96 399.341 623.056C401.936 620.835 404.53 618.615 407.126 616.393C436.967 590.853 464.141 552.567 485.253 508.947C484.882 508.513 483.707 508.016 483.335 507.582C437.476 525.788 392.414 533.544 356.614 525.856Z" fill="#946FD3"/>
<path d="M369.075 404.722C358.596 446.756 353.742 489.236 356.612 525.859C392.413 533.544 437.846 526.224 483.273 508.388C442.949 485.785 402.18 447.78 369.075 404.722Z" fill="#906ED3"/>
<path d="M503.357 69.6062C593.287 125.656 677.671 206.742 696.202 271.294C717.604 287.546 738.452 305.776 758.432 324.746C805.288 229.786 829.944 129.026 799.188 86.9621C762.182 36.719 625.001 38.3947 503.357 69.6062Z" fill="#C6B1E6"/>
<path d="M333.404 145.923C320.861 156.658 311.102 168.016 304.928 180.063C304.434 181.238 303.941 182.411 303.447 183.586C369.969 186.021 432.542 197.849 472.865 220.453C489.176 207.995 506.357 200.054 523.915 197.805C569.226 192.091 633.914 223.901 695.831 270.86C677.732 205.938 593.288 125.655 502.987 69.1727C434.934 86.8334 371.462 113.351 333.404 145.923Z" fill="#AA95E1"/>
<path d="M303.445 183.586C288.879 215.592 292.927 257.968 310.207 301.797C311.444 301.49 313.05 301.617 314.287 301.31C339.509 299.263 368.325 308.42 396.589 324.811C415.476 283.846 438.821 248.086 466.067 224.767C468.229 222.917 470.391 221.067 472.122 219.585C432.108 198.221 369.535 186.392 303.445 183.586Z" fill="#9C87DE"/>
<path d="M309.776 302.168C320.243 329.281 335.472 357.58 354.037 384.525C361.577 381.079 369.921 377.695 377.461 374.248C382.766 357.685 389.306 340.813 396.158 325.181C367.522 308.356 339.077 299.634 313.855 301.681C313.051 301.617 311.816 301.924 309.776 302.168Z" fill="#957AD9"/>
<path d="M354.471 384.156C358.802 390.969 363.94 397.846 369.508 404.352C371.911 394.029 374.686 384.139 378.264 374.313C369.551 377.262 362.01 380.709 354.471 384.156Z" fill="#906ED3"/>
<path d="M695.831 270.86C698.744 280.39 699.678 289.361 699.436 297.833C698.1 331.292 677.168 367.242 645.91 400.757C655.134 417.664 661.579 439.201 666.605 463.458C700.208 425.68 733.123 375.716 758.494 323.942C738.513 304.972 717.233 287.112 695.831 270.86Z" fill="#A98ADA"/>
<path d="M472.865 220.453C488.758 229.394 501.315 239.689 509.732 251.275C525.389 273.945 531.78 306.803 530.2 343.476C571.374 344.31 607.362 354.842 629.881 377.653C636.254 384.223 641.328 391.903 646.28 401.192C677.538 367.677 698.47 331.726 699.805 298.268C700.048 289.796 699.113 280.825 696.201 271.294C633.912 223.902 569.595 192.526 524.284 198.238C505.985 199.62 488.805 207.561 472.865 220.453Z" fill="#9B7BD7"/>
<path d="M466.438 225.202C439.192 248.52 415.044 284.216 396.961 325.244C410.877 333.625 425.102 343.244 438.773 354.839C470.482 347.241 501.513 343.227 530.2 343.476C531.78 306.803 525.389 273.945 509.732 251.275C501.748 239.319 489.191 229.024 472.865 220.453C470.331 221.87 468.601 223.351 466.438 225.202Z" fill="#9475D6"/>
<path d="M396.961 325.245C390.109 340.877 383.197 357.314 378.264 374.312C397.856 366.563 418.562 360.113 438.773 354.839C424.671 343.613 410.877 333.625 396.961 325.245Z" fill="#906ED3"/>
<path d="M543.283 479.575C552.939 496.109 560.927 513.322 567.367 529.602C589.003 526.867 612.239 513.744 635.16 494.126C645.54 485.243 656.042 474.751 666.606 463.457C661.952 439.635 655.136 417.662 645.912 400.757C636.707 410.138 627.07 419.889 616.691 428.772C594.634 447.65 569.855 465.098 543.283 479.575Z" fill="#9B76D4"/>
<path d="M486.61 507.035C486.549 507.839 485.685 508.579 485.623 509.383C512.774 524.472 539.239 532.634 563.657 530.523C565.265 530.65 566.501 530.344 567.738 530.037C561.297 513.756 553.309 496.544 543.652 480.01C524.681 490.234 505.771 499.655 486.61 507.035Z" fill="#946CD1"/>
<path d="M483.274 508.387C483.645 508.821 484.819 509.319 485.19 509.752C485.251 508.95 486.115 508.21 486.175 507.407C485.373 507.343 484.508 508.082 483.274 508.387Z" fill="#9068D0"/>
<path d="M530.202 343.475C529.233 372.11 523.569 404.012 514.319 435.225C524.961 449.412 535.112 464.774 543.654 480.009C569.855 465.098 594.634 447.65 616.691 428.772C627.07 419.889 637.078 410.572 645.912 400.757C640.959 391.469 635.885 383.788 629.512 377.218C606.993 354.407 571.377 344.309 530.202 343.475Z" fill="#946FD3"/>
<path d="M438.776 354.839C466.178 377.227 492.35 405.179 514.318 435.225C523.568 404.012 529.232 372.11 530.202 343.475C501.145 342.793 470.113 346.806 438.776 354.839Z" fill="#906BD1"/>
<path d="M514.317 435.226C507.226 459.331 497.661 484.05 486.612 507.034C505.77 499.654 524.681 490.233 543.653 480.007C534.307 464.71 524.528 449.782 514.317 435.226Z" fill="#906AD0"/>
<path d="M377.462 374.247C374.254 384.508 371.48 394.397 368.704 404.287C401.809 447.346 442.578 485.35 482.902 507.954C484.138 507.647 485.003 506.907 486.24 506.601C497.288 483.616 506.421 459.268 513.945 434.791C491.607 404.312 465.806 376.794 438.403 354.404C418.191 359.679 397.486 366.128 377.462 374.247Z" fill="#8E68D1"/>
</g>
</g>
<defs>
<clipPath id="clip0_1_151">
<rect width="729" height="880" fill="white"/>
</clipPath>
</defs>
</svg>
