<svg width="47" height="35" viewBox="0 0 47 35" fill="none" xmlns="http://www.w3.org/2000/svg">
<path d="M17.9126 0C18.4604 0.108023 18.9534 0.486111 19.3916 1.13426C19.9394 1.78241 20.2133 2.70062 20.2133 3.88889C16.3788 4.96913 13.6946 6.42747 12.1608 8.26389C10.627 9.99229 9.86014 11.8827 9.86014 13.9352C9.86014 15.6636 10.2984 17.0679 11.1748 18.1481C12.0513 19.1204 13.0373 19.9846 14.1329 20.7407C15.338 21.4969 16.3788 22.3611 17.2552 23.3333C18.1317 24.3056 18.5699 25.7099 18.5699 27.5463C18.5699 29.7068 17.803 31.4892 16.2692 32.8935C14.845 34.2978 13.0373 35 10.8462 35C7.44988 35 4.76573 33.7037 2.79371 31.1111C0.931235 28.4105 0 25.1697 0 21.3889C0 16.9599 0.986014 13.233 2.95804 10.2083C4.93007 7.18364 7.28555 4.8071 10.0245 3.0787C12.873 1.35031 15.5023 0.324076 17.9126 0ZM44.6993 0C45.2471 0.108023 45.7401 0.486111 46.1783 1.13426C46.7261 1.78241 47 2.70062 47 3.88889C43.1655 4.96913 40.4813 6.42747 38.9475 8.26389C37.4137 9.99229 36.6468 11.8827 36.6468 13.9352C36.6468 15.6636 37.0851 17.0679 37.9615 18.1481C38.838 19.1204 39.824 19.9846 40.9196 20.7407C42.1247 21.4969 43.1655 22.3611 44.042 23.3333C44.9184 24.3056 45.3566 25.7099 45.3566 27.5463C45.3566 29.7068 44.5897 31.4892 43.0559 32.8935C41.6317 34.2978 39.824 35 37.6329 35C34.2366 35 31.5524 33.7037 29.5804 31.1111C27.7179 28.4105 26.7867 25.1697 26.7867 21.3889C26.7867 16.9599 27.7727 13.233 29.7448 10.2083C31.7168 7.18364 34.0723 4.8071 36.8112 3.0787C39.6597 1.35031 42.289 0.324076 44.6993 0Z" fill="#946FD3"/>
</svg>
