<svg width="61" height="61" viewBox="0 0 61 61" fill="none" xmlns="http://www.w3.org/2000/svg">
<circle cx="30.5" cy="30.5" r="29.5" stroke="#D6D9DE" stroke-width="2"/>
<path d="M38.4212 25.5933L30.0016 33.0127L21.5802 25.5932C21.2448 25.2978 20.7337 25.3303 20.4384 25.6654C20.1432 26.0006 20.1753 26.5117 20.5106 26.8072L29.4669 34.6978C29.6198 34.8324 29.8108 34.8997 30.0017 34.8997C30.1926 34.8997 30.3837 34.8324 30.5366 34.6977L39.491 26.807C39.8261 26.5117 39.8584 26.0005 39.5631 25.6653C39.2675 25.3304 38.7565 25.298 38.4212 25.5933Z" fill="#354657"/>
<path d="M40.5732 22.1556H19.4268C18.0887 22.1556 17 23.2442 17 24.5824V37.4176C17 38.7557 18.0887 39.8443 19.4268 39.8443H40.5732C41.9113 39.8443 43 38.7557 43 37.4176V24.5824C43 23.2443 41.9113 22.1556 40.5732 22.1556ZM41.3822 37.4176C41.3822 37.8635 41.0193 38.2265 40.5732 38.2265H19.4268C18.9807 38.2265 18.6178 37.8635 18.6178 37.4176V24.5824C18.6178 24.1364 18.9807 23.7735 19.4268 23.7735H40.5732C41.0193 23.7735 41.3822 24.1364 41.3822 24.5824V37.4176Z" fill="#354657"/>
</svg>
