<svg width="61" height="61" viewBox="0 0 61 61" fill="none" xmlns="http://www.w3.org/2000/svg">
<circle cx="30.5" cy="30.5" r="29.5" stroke="#D6D9DE" stroke-width="2"/>
<path d="M40.231 21.406C38.0345 19.2094 35.1139 17.9999 32.0078 18C31.4987 18 31.0863 18.4126 31.0863 18.9215C31.0863 19.4303 31.4989 19.8429 32.0078 19.8429C34.6218 19.8428 37.0793 20.8607 38.9278 22.7091C40.7764 24.5576 41.7943 27.0153 41.7941 29.6294C41.7941 30.1383 42.2066 30.5509 42.7156 30.5509C43.2245 30.5509 43.6371 30.1383 43.6371 29.6295C43.6372 26.523 42.4276 23.6025 40.231 21.406Z" fill="#354657"/>
<path d="M36.4405 29.6295C36.4405 30.1384 36.853 30.551 37.3621 30.5508C37.8709 30.5508 38.2834 30.1383 38.2834 29.6294C38.2831 26.1696 35.4679 23.3545 32.0079 23.354C32.0078 23.354 32.0079 23.354 32.0078 23.354C31.4989 23.354 31.0864 23.7664 31.0863 24.2753C31.0863 24.7842 31.4987 25.1968 32.0076 25.1969C34.4517 25.1973 36.4402 27.1857 36.4405 29.6295Z" fill="#354657"/>
<path d="M34.4018 34.3277C32.9972 34.255 32.2817 35.2996 31.9385 35.8013C31.6512 36.2214 31.7588 36.7948 32.1788 37.0822C32.5989 37.3695 33.1723 37.2619 33.4597 36.8418C33.8651 36.249 34.0488 36.1558 34.298 36.1676C35.0954 36.2613 38.2364 38.563 38.5509 39.2827C38.6298 39.4947 38.6268 39.7024 38.5422 39.9552C38.2124 40.9339 37.6666 41.6216 36.9633 41.944C36.2952 42.2503 35.4761 42.2226 34.595 41.864C31.3052 40.5231 28.431 38.6518 26.0524 36.302C26.0514 36.301 26.0504 36.3002 26.0495 36.2992C23.7046 33.9229 21.8368 31.0524 20.4981 27.7676C20.1394 26.8858 20.1117 26.0666 20.418 25.3986C20.7403 24.6953 21.4281 24.1494 22.406 23.82C22.6596 23.735 22.8669 23.7323 23.0769 23.8105C23.7992 24.1261 26.1008 27.2669 26.1937 28.0554C26.2069 28.3139 26.1129 28.4975 25.5206 28.9022C25.1004 29.1892 24.9924 29.7626 25.2796 30.1828C25.5666 30.603 26.1398 30.7108 26.5602 30.4238C27.0622 30.081 28.1065 29.3675 28.034 27.9581C27.9541 26.486 25.0905 22.5875 23.7222 22.0844C23.1137 21.8576 22.4735 21.8536 21.8189 22.0733C20.3461 22.5693 19.2824 23.4537 18.7427 24.6307C18.2194 25.7726 18.2359 27.0974 18.7913 28.4626C20.224 31.9779 22.2284 35.0537 24.7489 37.6049C24.7551 37.6112 24.7613 37.6173 24.7677 37.6234C27.3171 40.1392 30.3894 42.14 33.9 43.571C34.603 43.8569 35.2953 44 35.9574 44C36.5808 44 37.1777 43.8732 37.7313 43.6194C38.9084 43.0799 39.7927 42.0163 40.289 40.5424C40.5082 39.8891 40.5047 39.2492 40.2796 38.6435C39.7747 37.2715 35.8762 34.4078 34.4018 34.3277Z" fill="#354657"/>
</svg>
